Coordinates
version=1
nRows=7
nColumns=40
inDegrees=yes

Units are S.I. units (second, meters, Newtons, ...)
Angles are in degrees.

endheader
time	pelvis_tilt	pelvis_list	pelvis_rotation	pelvis_tx	pelvis_ty	pelvis_tz	hip_flexion_r	hip_adduction_r	hip_rotation_r	knee_angle_r	knee_angle_r_beta	ankle_angle_r	subtalar_angle_r	mtp_angle_r	hip_flexion_l	hip_adduction_l	hip_rotation_l	knee_angle_l	knee_angle_l_beta	ankle_angle_l	subtalar_angle_l	mtp_angle_l	lumbar_extension	lumbar_bending	lumbar_rotation	arm_flex_r	arm_add_r	arm_rot_r	elbow_flex_r	pro_sup_r	wrist_flex_r	wrist_dev_r	arm_flex_l	arm_add_l	arm_rot_l	elbow_flex_l	pro_sup_l	wrist_flex_l	wrist_dev_l
      0.70000000	      0.01248891	     -0.79903134	     10.75744970	     -0.07990296	      0.92131268	     -1.06737199	     27.97130924	     -5.06214550	    -25.93754743	    -18.53685443	     -0.32352914	     -2.28461166	     -0.31590992	      1.21452906	    -19.86565571	      6.87420986	     12.74997209	    -15.94091835	     -0.27822151	     -1.11534872	    -12.47282706	    -16.92650380	     -2.86862149	      1.31772994	    -15.82756587	    -12.18233425	     -9.72991145	    -16.72252179	     14.16777570	     89.95437384	      0.00000000	      0.00000000	     17.01876707	     19.45832665	      9.80825580	     49.45870554	     89.95437384	      0.00000000	      0.00000000
      0.71000000	      1.02314690	     -2.01120820	     10.86593097	     -0.06165574	      0.92172123	     -1.06505765	     26.35174430	     -3.11593684	    -25.65324740	    -17.79475786	     -0.31057711	     -7.01050168	     -3.36143248	      1.85084248	    -20.84705336	      9.34468596	     15.06230604	    -17.71370684	     -0.30916251	     -4.04076279	    -14.61178692	    -16.65383442	     -3.23866643	      2.73287489	    -15.87575947	    -12.24708656	     -9.76928371	    -16.53562674	     13.72341304	     89.95437384	      0.00000000	      0.00000000	     16.28634801	     19.22753732	     10.37463792	     49.85086327	     89.95437384	      0.00000000	      0.00000000
      0.72000000	      1.17990215	     -2.18242183	     10.48301471	     -0.04496695	      0.92155025	     -1.06292295	     26.47403376	     -2.90567959	    -25.34084972	    -19.63344188	     -0.34266820	     -7.88541343	     -3.54855493	      1.60036678	    -20.86337922	     10.00525431	     15.66280949	    -19.72485546	     -0.34426367	     -5.98367217	    -13.45251234	    -15.75870054	     -3.03119834	      2.89141619	    -15.47404845	    -12.26910049	     -9.73453295	    -16.35102290	     13.46865293	     89.95437384	      0.00000000	      0.00000000	     15.68289571	     19.08143580	     10.71316510	     49.87852166	     89.95437384	      0.00000000	      0.00000000
      0.73000000	      0.85059519	     -2.77515439	      9.89885943	     -0.02862262	      0.92073464	     -1.05972974	     27.51364938	     -1.99633826	    -23.96433535	    -22.43453547	     -0.39155651	     -8.14933999	     -5.60746090	     -0.65196951	    -19.77552564	     11.41679856	     17.63396868	    -22.77879951	     -0.39756505	     -8.88198820	    -14.08304201	    -15.32250280	     -2.19718661	      3.35795868	    -14.91179784	    -12.42835257	     -9.72497528	    -15.71304534	     13.40684886	     89.95437384	      0.00000000	      0.00000000	     14.92990282	     18.79329220	     11.22919400	     49.79866633	     89.95437384	      0.00000000	      0.00000000
      0.74000000	      0.79532816	     -2.82525203	      9.44061128	     -0.01294343	      0.92137213	     -1.05766683	     28.02384293	     -1.60450536	    -22.61811346	    -24.90785098	     -0.43472401	     -7.09967629	     -5.89121937	     -0.97866566	    -18.79493163	     11.88643545	     17.92140469	    -25.63691381	     -0.44744856	    -11.60280234	    -11.41990491	    -13.99742882	     -1.89070961	      3.37902024	    -14.36678882	    -12.29928051	     -9.67955492	    -15.24169706	     13.16874949	     89.95437384	      0.00000000	      0.00000000	     14.40185893	     18.42594258	     11.60521635	     49.40518635	     89.95437384	      0.00000000	      0.00000000
      0.75000000	     -0.28242238	     -3.42309347	      8.73660308	      0.00213538	      0.92045236	     -1.05401258	     29.41655828	     -0.06983122	    -19.94257527	    -26.16594087	     -0.45668182	     -7.46982718	    -10.04173883	     -1.26590639	    -16.07326871	     12.95608484	     18.12582620	    -29.35265580	     -0.51230049	    -14.79241948	     -9.72456393	    -13.68759041	     -0.39749365	      3.71746070	    -13.70986607	    -12.15709829	     -9.61127796	    -14.76068329	     12.80609528	     89.95437384	      0.00000000	      0.00000000	     13.46206700	     18.04567126	     12.22071468	     49.22878320	     89.95437384	      0.00000000	      0.00000000
      0.76000000	     -0.33000407	     -3.52926946	      8.43537974	      0.01736718	      0.92160823	     -1.05187739	     29.21444855	      0.61747658	    -18.64566824	    -27.50396046	     -0.48003467	     -5.95848106	    -10.82278431	     -1.44944546	    -14.42369348	     13.36250300	     17.14275364	    -32.59170384	     -0.56883254	    -17.58033506	     -6.95384396	    -12.61322678	     -0.15385790	      3.74035893	    -13.30031472	    -11.77817721	     -9.51772162	    -14.27217254	     12.50181928	     89.95437384	      0.00000000	      0.00000000	     12.67931708	     17.79284376	     12.35814450	     48.99186060	     89.95437384	      0.00000000	      0.00000000
